<?xml version="1.0" encoding="iso-8859-1"?>
<svg xmlns="http://www.w3.org/2000/svg" xmlns:xlink="http://www.w3.org/1999/xlink" fill="#000000" version="1.1" id="Capa_1" width="800px" height="800px" viewBox="0 0 75.22 75.22" xml:space="preserve">
<g>
	<path d="M67.104,0H8.117C3.635,0,0,3.634,0,8.117v58.987c0,4.481,3.635,8.116,8.117,8.116h58.987c4.482,0,8.116-3.635,8.116-8.116   V8.117C75.22,3.633,71.587,0,67.104,0z M53.922,8.454l-6.035,8.955c-3.585-2.416-7.059-3.207-10.085-3.199l-4.335-7.348   l-1.068,0.579l3.419,6.89c-4.787,0.561-8.05,2.904-8.105,2.945l-6.412-8.688C21.939,8.115,37.156-2.845,53.922,8.454z    M66.089,58.496c0,4.482-3.634,8.117-8.117,8.117H17.114c-4.483,0-8.117-3.635-8.117-8.117V29.831c0-4.483,3.634-8.117,8.117-8.117   h40.857c4.483,0,8.117,3.634,8.117,8.117L66.089,58.496L66.089,58.496z"></path>
</g>
</svg>
